<?xml version="1.0" encoding="UTF-8" standalone="no"?>
<svg
   xmlns="http://www.w3.org/2000/svg"
   id="svg8"
   version="1.1"
   viewBox="0 0 210 297"
   height="297mm"
   width="210mm">
  
    <defs
     id="defs2" />
  
    <g
     id="layer2"
     transform="translate(87.163043,-58.826087)">
        <path
           id="path4588"
           transform="scale(0.26458333)"
           d="m -271.47266,223.14453 c -3.88527,0.12733 0.18215,5.15147 4.76954,9.07422 41.26993,41.42756 71.80083,93.42669 88.85351,149.44531 9.69099,37.23519 18.36006,74.76557 25.05469,112.66992 11.19452,58.52134 13.31436,118.16346 15.42969,177.55469 22.27776,-0.004 44.556216,-0.005 66.83398,-0.008 -0.172509,-60.6559 -6.348522,-121.49731 -20.177734,-180.58398 -8.205842,-37.79044 -21.204026,-74.25964 -37.152346,-109.39258 -17.62619,-36.2426 -40.40126,-69.97348 -65.66211,-101.27735 -19.81664,-22.77197 -43.39928,-43.52345 -71.13672,-55.75586 -3.33786,-1.268 -5.5174,-1.769 -6.8125,-1.72656 z m 329.664066,89.53125 c -0.679192,0.0144 -1.556474,0.11412 -2.664062,0.3125 -19.641794,3.90737 -38.407291,13.63853 -51.8906252,28.68555 -16.5666528,16.0004 -31.8629238,33.60426 -42.8730468,53.98633 -10.795291,17.36213 -19.072469,36.14827 -26.19336,55.29687 6.920323,29.04098 13.841397,58.0821 20.761719,87.12305 4.364153,-26.32906 7.284018,-53.06967 15.75586,-78.50781 7.951478,-25.36426 18.753115,-49.73493 30.708984,-73.42383 12.899171,-23.0709 28.651172,-44.63964 48.248047,-62.42774 2.704333,-3.37048 14.712006,-11.18445 8.146484,-11.04492 z m -383.767576,66.4043 c -2.34143,-0.0646 -3.87361,0.81686 -3.67578,3.3125 23.46898,31.81009 47.96451,63.40825 63.87304,99.94922 11.70795,29.26836 21.96238,59.24981 28.54493,90.13672 7.57205,32.476 7.34051,65.95638 9.40234,99.04882 22.03853,0.0227 44.0767,0.0437 66.11523,0.0664 0.52536,-44.15875 -7.69103,-88.25997 -23.44336,-129.44922 -8.53906,-24.82125 -21.95209,-47.58993 -37.10156,-68.84765 -24.03966,-33.29791 -51.72311,-64.65327 -86.30273,-87.1836 -3.19245,-2.1707 -12.26098,-6.89099 -17.41211,-7.0332 z m 444.8125,1.02344 c -16.80546,0.76081 -29.967209,13.27506 -42.64258,23.07617 -22.138503,19.52118 -40.918859,42.78337 -54.65625,69.00781 -17.9912893,31.28047 -33.086387,64.49555 -42.722656,99.35156 -7.687709,32.92895 -14.293356,66.41485 -13.802735,100.39258 22.475363,-0.0227 44.950419,-0.0437 67.425782,-0.0664 1.810758,-31.2853 -1.007305,-62.87803 4.375,-93.92968 4.924243,-32.47665 14.592062,-64.05041 26.134765,-94.71485 15.123436,-36.15583 33.219648,-71.12613 55.888674,-103.11718 z"
           style="fill:#003f12;fill-opacity:1;stroke:#000000;stroke-width:0.98733664px;stroke-linecap:butt;stroke-linejoin:miter;stroke-opacity:1"/>
    </g>
</svg>
