<?xml version="1.0" encoding="UTF-8" standalone="no"?>
<svg
   xmlns="http://www.w3.org/2000/svg"
   id="svg8"
   version="1.1"
   viewBox="0 0 120 120"
   width="100px">
  <defs
     id="defs2" />
  <g
     id="layer2">
    <path
       id="path4916"
       d="m 18.733024,119.69253 c 2.75067,-0.49793 5.60395,-1.52535 9.12616,-3.28617 5.28952,-2.64432 7.29261,-4.24798 15.63708,-12.51889 l 7.74656,-7.67826 -3.66201,-3.69053 c -2.27451,-2.29223 -4.06535,-3.85555 -4.72658,-4.12606 -1.62376,-0.6643 -1.80755,-1.27033 -0.91026,-3.00136 2.6656,-5.14248 4.54957,-7.17315 21.97514,-23.68634 3.09856,-2.93633 8.67603,-8.34327 12.39438,-12.01544 3.71835,-3.67216 8.85221,-8.53207 11.40856,-10.79978 4.26679,-3.785 4.71724,-4.109237 5.49301,-3.95391 0.46481,0.093 2.05013,0.24026 3.52297,0.32711 2.38754,0.14076 2.91535,0.0781 4.868426,-0.577287 2.99736,-1.00594 5.51133,-2.31844 8.4967,-4.43597 3.10775,-2.20434 10.02338,-8.8797 10.01763,-9.6696 -0.006,-0.76435 -18.82334,-19.5765582 -19.58633,-19.58050917 -0.798206,-0.0042 -7.489076,6.91934507 -9.669756,10.00591817 -2.12369,3.005933 -4.07224,6.899031 -4.71407,9.418511 -0.45067,1.76905 -0.43713,5.1342 0.03,7.47374 0.15625,0.7824 -0.20064,1.251 -4.82581,6.33658 -2.74698,3.020437 -7.99114,8.659997 -11.65366,12.532357 -3.66252,3.87235 -7.72426,8.18123 -9.02609,9.57528 -3.10578,3.32581 -11.42395,11.87572 -13.93221,14.32039 -3.01216,2.93577 -8.83621,7.50129 -10.54158,8.26362 -2.12964,0.95199 -2.84491,0.80507 -3.58475,-0.73631 -0.35653,-0.7428 -2.03167,-2.68941 -4.14978,-4.82228 l -3.55189,-3.57665 -7.54406,7.63854 C 9.2156576,85.68649 7.2757376,88.09804 4.7120576,93.16557 c -2.9850299,5.90036 -4.07863992,10.67481 -3.5081799,15.31571 0.9481899,7.71373 2.0542099,9.41058 6.9398699,10.64713 4.0677464,1.02956 7.1198964,1.19214 10.5892164,0.56412 z m 75.34884,-88.543377 c -3.09913,-1.50493 -4.69101,-4.07813 -4.88623,-7.89828 -0.14536,-2.84468 0.35944,-5.09335 1.77367,-7.900957 0.98045,-1.946459 3.17669,-5.047434 4.73103,-6.6799881 l 0.87791,-0.92209 8.248096,8.2425781 c 4.53644,4.533407 8.24808,8.377757 8.24808,8.542987 0,0.40565 -3.44243,3.36388 -5.30751,4.561 -3.25177,2.08714 -6.05147,2.90269 -9.622206,2.80293 -2.14482,-0.0599 -2.95139,-0.20846 -4.06284,-0.74818 z"
       style="fill:#003f12;fill-opacity:0.94117647;stroke-width:0.28165939" />
  </g>
</svg>
